<?xml version="1.0" encoding="UTF-8" standalone="no"?>
<!-- Created with Inkscape (http://www.inkscape.org/) -->
<svg
   xmlns:svg="http://www.w3.org/2000/svg"
   xmlns="http://www.w3.org/2000/svg"
   version="1.0"
   width="1133.8583"
   height="331.65353"
   id="svg2">
  <defs
     id="defs4" />
  <g
     transform="matrix(1.4775753,0,0,1.4775753,80.957549,-16.892241)"
     id="g2436">
    <path
       d="M 376.05367,162.42355 L 376.05367,197.38217 C 356.64079,207.10343 338.18283,211.9611 319.73673,211.9611 C 268.76382,211.9611 238.17059,181.85423 238.17059,143.97152 C 238.17059,103.16472 273.1292,69.178829 317.79128,69.178829 C 328.95385,69.178829 337.2101,71.112406 345.95272,74.04243 C 352.26948,75.976007 356.1485,78.407808 360.02751,78.407808 C 363.43203,78.407808 364.40475,72.577418 364.89111,69.178829 L 369.74879,69.178829 L 374.1201,116.28458 L 368.2897,116.28458 C 365.85196,107.06153 361.49845,99.285705 355.6562,93.947603 C 346.43908,84.724554 333.81152,79.860952 319.25037,79.860952 C 288.66306,79.860952 270.69739,104.14931 270.69739,140.57294 C 270.69739,176.50426 292.54801,201.28491 321.67624,201.28491 C 330.42479,201.28491 338.18283,199.33946 347.89817,194.96815 L 347.89817,159.01902 C 347.89817,147.35825 345.95272,142.99287 329.44614,142.99287 L 329.44614,137.6607 L 391.10711,137.6607 L 391.10711,142.99287 C 375.57917,142.99287 376.05367,147.84461 376.05367,162.42355"
       id="path410"
       style="font-size:22px;letter-spacing:0;word-spacing:0;fill:#003671;fill-opacity:1;fill-rule:nonzero;stroke:none;font-family:fnt0" />
    <path
       d="M 206.61056,105.1161 L 206.61056,209.53524 L 198.36023,209.53524 L 93.958876,101.71157 C 94.445238,104.62381 94.445238,107.06153 94.445238,109.96784 L 94.445238,175.53748 C 94.445238,195.92308 94.445238,203.21848 112.9032,203.21848 L 112.9032,208.55065 L 63.869796,208.55065 L 63.869796,203.21848 C 82.309963,203.21848 82.309963,194.48179 82.309963,175.53748 L 82.309963,100.75072 C 82.309963,89.576294 82.309963,77.435088 62.897073,77.435088 L 62.897073,72.096989 L 109.02418,72.096989 L 194.96163,160.47218 C 194.46934,158.05817 194.46934,156.59316 194.46934,153.2005 L 194.46934,105.1161 C 194.46934,85.685414 194.96163,77.435088 176.50368,77.435088 L 176.50368,72.096989 L 225.54894,72.096989 L 225.54894,77.435088 C 207.58327,77.435088 206.61056,85.204984 206.61056,105.1161"
       id="path414"
       style="font-size:22px;letter-spacing:0;word-spacing:0;fill:#003671;fill-opacity:1;fill-rule:nonzero;stroke:none;font-family:fnt0" />
    <path
       d="M -30.810277,208.55065 L -30.810277,203.21848 C -19.149498,203.21848 -10.905102,202.24577 -10.905102,185.24688 L -10.905102,95.406688 C -10.905102,77.915517 -17.21592,77.435088 -30.810277,77.435088 L -30.810277,72.096989 L 38.140163,72.096989 L 38.140163,77.435088 C 24.059445,77.435088 18.229055,77.915517 18.229055,95.406688 L 18.229055,185.24688 C 18.229055,202.24577 25.512593,203.21848 38.140163,203.21848 L 38.140163,208.55065 L -30.810277,208.55065 z"
       id="path418"
       style="font-size:22px;letter-spacing:0;word-spacing:0;fill:#003671;fill-opacity:1;fill-rule:nonzero;stroke:none;font-family:fnt0" />
    <path
       d="M 425.987,209.06622 L 622.83149,209.06622 L 631.60647,194.20124 L 637.02645,164.41631 L 626.64648,132.13642 L 612.90152,112.27646 L 605.89651,110.01646 L 600.24152,112.49645 L 597.99153,121.52645 L 570.8866,125.58641 L 556.68164,114.98145 L 544.03169,83.37653 L 536.36672,61.47661 L 534.7767,52.45662 L 531.16673,48.16165 L 511.52176,45.00163 L 499.56682,50.86664 L 485.11684,45.00163 L 472.47687,44.55164 L 467.74688,52.45662 L 464.80689,58.09659 L 460.74192,68.25657 L 457.36191,82.92654 L 459.8419,106.40148 L 461.20689,123.78645 L 460.29189,133.93642 L 464.5819,150.64136 L 460.0669,164.18131 L 453.07195,182.02127 L 448.55194,184.28127 L 442.00694,181.34128 L 435.01199,185.18125 L 427.56201,188.11624 L 423.04701,194.88624 L 423.72199,205.26621 L 425.987,209.06622 z"
       id="path422"
       style="font-size:22px;letter-spacing:0;word-spacing:0;fill:#ffffff;fill-rule:nonzero;stroke:none;font-family:fnt0" />
    <path
       d="M 630.61647,75.48657 L 625.22648,70.73656 L 611.32651,67.68157 L 610.68652,62.59161 L 620.1915,59.87661 L 626.17146,64.62157 L 631.55645,65.6416 L 634.39646,65.97659 L 643.26141,77.17658 L 630.61647,75.48657 z"
       id="path426"
       style="font-size:22px;letter-spacing:0;word-spacing:0;fill:#ffffff;fill-rule:nonzero;stroke:none;font-family:fnt0" />
    <path
       d="M 514.95675,101.86149 L 514.95675,99.14149 L 509.97178,99.14149 L 509.52679,100.04151 L 514.95675,101.86149 z M 489.62183,99.14149 C 488.26685,97.78652 486.46685,99.14149 484.20184,98.6865 C 484.20184,99.14149 483.75185,100.50151 485.10182,101.39649 C 486.91684,100.04151 489.15682,99.14149 489.62183,99.14149 M 520.82676,73.35658 C 520.82676,73.35658 521.72674,73.35658 520.82676,72.90159 L 510.42177,71.99656 C 509.06679,72.90159 507.25678,72.90159 506.80679,74.26657 L 505.9018,74.71656 C 506.80679,78.34155 506.80679,82.40656 506.80679,86.47153 C 508.61676,86.92653 510.87176,88.28655 510.87176,91.0015 C 512.68677,91.90653 514.95675,92.35151 516.30175,93.7115 C 517.20674,93.26151 518.11176,91.90653 518.56175,90.55151 C 516.30175,88.28655 512.22677,89.64653 512.22677,85.57655 L 509.52679,84.22154 C 509.52679,81.49156 509.52679,78.78654 508.61676,76.97657 L 509.52679,76.07158 C 509.52679,76.97657 509.97178,77.42656 510.87176,78.34155 C 512.68677,78.34155 514.95675,78.78654 516.30175,77.42656 C 517.20674,76.97657 517.20674,74.71656 518.56175,74.71656 C 519.01675,74.71656 520.37177,74.71656 520.82676,73.35658 M 493.24181,74.26657 C 493.24181,73.35658 492.33682,72.45156 490.97684,71.99656 L 480.58186,71.99656 L 479.67187,71.99656 C 479.67187,73.35658 481.03185,74.71656 482.38687,74.71656 C 482.38687,76.07158 483.75185,76.97657 484.65183,77.42656 C 485.55185,78.34155 486.46685,78.34155 487.81682,77.42656 C 489.15682,78.34155 489.62183,76.07158 490.07682,77.42656 C 490.07682,80.14155 490.07682,81.49156 489.62183,83.76154 C 489.15682,86.92653 486.00685,86.47153 484.20184,88.28655 C 483.75185,89.18152 482.38687,91.90653 483.75185,93.26151 C 485.10182,92.35151 486.46685,91.90653 488.26685,91.0015 C 488.26685,89.64653 490.07682,88.28655 491.87682,86.92653 C 491.87682,82.85655 493.24181,78.78654 493.24181,74.26657 M 497.31182,63.41159 C 495.96181,62.49659 493.24181,63.85657 491.87682,64.7666 C 490.07682,65.2166 488.26685,66.56657 488.26685,67.93159 L 493.6918,67.93159 C 494.59182,66.56657 495.96181,64.7666 497.31182,63.41159 M 513.13676,67.93159 C 513.13676,66.56657 512.68677,66.56657 512.22677,66.12659 C 509.97178,66.12659 509.97178,62.49659 508.16677,63.41159 C 506.80679,63.41159 505.9018,62.49659 505.00679,63.41159 C 504.54679,63.85657 505.00679,63.85657 505.45678,63.85657 C 508.16677,63.85657 506.80679,67.4766 508.61676,67.93159 L 513.13676,67.93159 z M 528.96174,65.2166 C 529.87674,62.49659 530.33173,58.43162 528.51171,55.72163 C 527.15674,54.36662 524.89173,53.00663 522.63173,51.64661 L 519.01675,53.00663 C 517.20674,54.36662 516.30175,55.72163 516.30175,58.43162 C 519.47174,59.79161 523.09173,63.41159 524.44174,66.56657 L 525.79671,66.56657 C 527.15674,65.2166 528.51171,66.56657 528.96174,65.2166 M 486.91684,58.43162 C 486.46685,53.90661 481.03185,53.00663 478.32686,51.64661 L 476.96688,51.64661 C 472.89687,52.55164 471.98688,56.61661 471.53689,59.79161 C 472.89687,63.85657 475.60686,61.14162 477.86186,63.85657 C 479.67187,62.49659 484.65183,59.33661 486.91684,58.43162 M 431.29699,196.84625 C 430.84199,196.84625 429.48201,195.48623 428.13701,195.48623 C 426.76702,198.19622 428.13701,200.46623 428.13701,203.62121 C 428.13701,204.5362 427.68201,206.35623 427.68201,206.35623 C 426.76702,206.35623 424.96201,204.0762 424.06199,202.72623 L 424.06199,195.04124 L 428.57699,189.60624 C 431.29699,191.41125 432.19697,194.13125 431.29699,196.84625 M 443.95694,191.41125 C 443.95694,193.66624 443.50695,195.48623 442.14697,196.84625 C 441.69698,195.04124 440.34196,192.77123 438.07696,192.77123 C 436.27199,196.38124 435.81199,197.73622 437.62196,203.62121 C 436.27199,204.5362 434.90696,204.9962 433.54698,206.35623 C 432.65197,204.0762 432.19697,200.91121 432.19697,199.10621 C 432.19697,195.94122 433.09199,192.77123 433.99697,190.05627 C 434.90696,188.26127 436.27199,185.99126 437.62196,184.62127 L 442.60196,184.18125 C 440.79195,184.62127 440.79195,186.90125 440.79195,188.26127 C 441.69698,188.70125 443.95694,189.14624 443.95694,191.41125 M 460.23191,194.13125 C 460.23191,198.19622 454.35193,203.62121 454.35193,203.62121 C 454.35193,200.91121 455.26192,198.19622 455.71191,195.48623 C 455.71191,195.48623 453.90194,193.66624 451.64193,193.66624 C 450.28692,194.13125 450.28692,195.48623 449.83693,196.84625 C 448.47695,199.56124 445.76195,202.25622 444.86693,204.9962 C 444.42195,204.9962 444.42195,204.5362 444.42195,204.5362 C 444.42195,200.46623 444.86693,191.86124 448.02695,188.70125 C 450.74692,185.99126 452.09192,185.99126 454.80692,185.53126 L 457.52692,185.99126 L 455.71191,188.70125 C 457.52692,189.60624 460.23191,191.41125 460.23191,194.13125 M 536.65671,195.48623 L 535.30669,196.84625 C 533.94671,195.48623 534.84169,191.41125 532.58673,190.95625 C 530.33173,190.95625 528.51171,188.70125 527.61173,188.26127 L 528.96174,187.34628 C 528.96174,187.34628 530.33173,186.90125 531.22671,187.34628 C 532.1367,188.26127 533.03672,188.70125 533.03672,190.05627 C 533.94671,190.95625 535.30669,190.05627 536.20171,190.95625 C 536.65671,192.31623 537.1067,194.13125 536.65671,195.48623 M 552.94165,188.70125 C 552.48164,190.05627 552.03165,192.31623 551.57666,194.13125 C 550.22665,191.41125 549.31666,187.34628 546.15167,187.34628 C 545.70168,185.53126 545.25169,184.18125 543.43667,183.26625 L 539.3717,182.81626 C 539.82169,184.18125 542.53669,184.62127 541.18668,187.34628 C 542.53669,188.70125 544.3417,188.70125 545.25169,190.95625 C 546.15167,192.31623 545.25169,194.13125 545.70168,195.48623 L 542.53669,196.84625 C 542.53669,194.13125 543.43667,190.05627 539.82169,188.70125 C 537.1067,189.60624 536.65671,185.99126 534.84169,184.62127 C 533.94671,184.18125 533.94671,181.91128 532.58673,183.26625 C 530.33173,184.62127 527.15674,183.26625 524.89173,184.62127 L 527.15674,180.55626 C 528.96174,179.20129 531.22671,180.10127 533.03672,179.20129 L 536.65671,178.74629 C 540.73168,178.74629 543.89167,180.55626 547.51666,181.91128 C 549.31666,183.26625 550.22665,184.62127 550.22665,186.90125 C 551.57666,187.34628 553.39664,187.34628 552.94165,188.70125 M 626.17647,188.26127 C 625.27148,189.60624 624.85645,190.05627 624.38648,190.95625 C 624.38648,188.70125 621.66648,187.34628 619.87649,183.26625 L 621.66648,180.10127 C 623.49146,180.55626 624.85645,181.91128 624.85645,184.18125 C 624.85645,184.62127 624.38648,185.99126 624.85645,186.90125 C 624.85645,187.34628 626.17647,187.34628 626.17647,188.26127 M 473.34686,189.60624 L 471.98688,194.13125 L 468.82689,185.99126 C 464.75688,181.91128 460.69191,181.46129 457.97191,180.10127 C 456.61693,179.20129 456.61693,180.55626 455.26192,180.10127 C 455.26192,178.74629 455.71191,177.39127 457.07193,176.0363 L 459.78192,176.0363 L 462.49191,177.39127 C 464.30188,178.74629 467.46687,178.74629 467.46687,181.46129 C 467.46687,182.37128 467.02189,182.81626 467.92687,184.18125 L 472.89687,185.99126 L 473.34686,189.60624 z M 611.72152,184.62127 C 611.72152,185.08127 610.8215,185.99126 610.8215,185.99126 C 608.57151,184.62127 606.7615,183.73126 604.03653,183.73126 C 604.03653,182.37128 603.13651,180.10127 602.23152,180.10127 C 599.06654,180.10127 599.51152,181.46129 597.26153,181.46129 L 601.33655,177.39127 C 601.77152,176.49129 602.23152,176.49129 603.13651,176.49129 C 604.48652,177.39127 604.93651,177.84627 606.30154,177.84627 C 606.30154,178.74629 606.30154,179.20129 605.86152,180.55626 C 606.7615,181.46129 608.11151,180.55626 609.01153,181.46129 C 610.37151,181.91128 611.72152,182.81626 611.72152,184.62127 M 558.36163,187.34628 L 557.91665,187.34628 C 557.00666,185.99126 556.56664,184.62127 555.65164,184.62127 C 557.00666,179.20129 554.29667,175.12631 553.39664,170.6013 L 552.94165,169.25629 C 554.73665,171.51129 558.36163,173.77129 557.91665,176.49129 C 558.36163,180.55626 558.82164,184.18125 558.36163,187.34628 M 480.58186,182.81626 L 477.41687,185.99126 C 476.52186,184.62127 477.41687,181.91128 475.60686,180.55626 C 475.60686,180.10127 476.96688,179.20129 476.52186,178.74629 C 475.60686,177.84627 470.18687,176.0363 470.18687,176.0363 C 467.92687,174.67628 466.1119,173.31629 464.30188,171.0613 C 462.04689,170.6013 460.69191,171.97129 458.4219,172.41631 C 457.97191,171.97129 457.97191,171.0613 457.97191,171.0613 C 459.3369,169.69631 459.3369,166.99633 462.04689,166.99633 C 463.4019,166.99633 465.21192,166.99633 466.56189,168.34129 C 468.3769,168.34129 469.28689,170.16132 470.62689,170.6013 C 472.89687,173.31629 474.70688,173.77129 476.52186,175.12631 C 476.05685,176.49129 476.96688,177.39127 477.86186,177.84627 C 480.58186,177.84627 479.67187,180.55626 480.58186,182.81626 M 629.36644,175.5813 C 629.36644,178.30126 629.36644,179.20129 628.01147,181.46129 L 624.85645,177.39127 C 626.17647,176.0363 626.17647,173.77129 627.55647,171.97129 C 628.01147,171.97129 629.36644,175.12631 629.36644,175.5813 M 548.87167,178.74629 C 546.61167,177.39127 543.89167,177.39127 542.53669,175.12631 C 541.18668,174.67628 539.3717,174.67628 537.1067,174.67628 C 535.30669,175.12631 533.03672,175.12631 531.22671,175.12631 C 530.77672,175.12631 531.22671,174.67628 530.33173,173.77129 C 527.61173,175.12631 524.44174,175.12631 521.72674,177.84627 L 523.99175,172.41631 C 525.79671,172.41631 527.15674,171.0613 528.51171,171.0613 C 529.87674,170.6013 531.68171,170.6013 533.03672,170.6013 L 533.03672,171.0613 C 538.47168,171.0613 544.3417,170.6013 548.41668,175.12631 L 548.87167,178.74629 z M 616.7115,174.67628 C 616.7115,176.49129 616.26151,176.93127 615.81148,179.20129 C 612.17652,178.74629 612.64649,175.12631 611.72152,174.67628 C 609.91151,171.97129 606.30154,173.77129 603.58654,173.77129 C 603.13651,171.0613 604.48652,171.0613 604.48652,169.69631 C 605.86152,169.69631 607.21153,168.34129 608.57151,169.25629 C 610.8215,168.34129 612.17652,170.6013 614.44649,170.6013 C 615.34651,171.97129 616.26151,173.77129 616.7115,174.67628 M 482.84186,167.89631 C 482.84186,169.25629 482.38687,175.12631 482.38687,175.12631 C 481.48184,171.51129 479.22188,168.34129 476.52186,168.34129 C 474.70688,166.99633 473.34686,165.6313 472.89687,164.27633 C 471.53689,162.92131 470.18687,163.82133 468.3769,162.92131 C 466.56189,162.92131 464.30188,162.92131 462.04689,163.82133 L 462.04689,162.92131 L 465.21192,158.84133 C 468.82689,159.74635 472.89687,158.84133 474.25689,161.55632 C 476.05685,162.92131 478.32686,163.82133 479.22188,165.16634 L 479.22188,166.53633 C 480.13187,166.99633 481.94184,167.44632 482.84186,167.89631 M 502.74178,166.99633 C 500.9268,168.34129 499.11679,168.34129 497.31182,167.89631 L 494.59182,163.82133 C 496.39683,164.27633 499.11679,164.27633 501.3868,163.82133 L 502.74178,166.99633 z M 581.89659,169.25629 C 581.89659,171.51129 578.71158,174.67628 577.82658,176.49129 C 578.71158,173.77129 579.17158,169.25629 577.82658,169.25629 C 576.91158,168.79629 575.08659,169.69631 575.08659,168.34129 C 575.08659,166.99633 575.54659,165.16634 575.54659,163.82133 C 575.54659,162.47132 574.19162,161.55632 574.19162,160.21132 C 574.19162,157.48635 577.35661,157.03636 578.2666,155.22635 C 579.17158,157.03636 578.71158,159.29632 578.71158,161.10633 C 579.17158,162.47132 580.0666,165.16634 579.17158,167.44632 C 579.17158,168.79629 581.89659,167.89631 581.89659,169.25629 M 547.51666,169.25629 C 545.25169,169.25629 543.43667,169.25629 542.0867,166.99633 C 541.6267,166.99633 540.73168,165.6313 539.82169,166.53633 C 538.01669,168.34129 535.30669,165.16634 532.58673,165.6313 C 531.22671,166.99633 529.41173,167.89631 527.61173,168.34129 L 527.15674,167.89631 C 527.15674,166.53633 528.51171,165.16634 529.87674,163.82133 C 533.03672,165.16634 535.30669,158.84133 538.47168,162.47132 C 539.3717,162.92131 541.18668,162.92131 542.0867,162.92131 C 545.25169,163.82133 546.15167,166.99633 547.51666,169.25629 M 515.40177,166.53633 L 514.95675,166.53633 C 514.04175,166.53633 510.87176,165.16634 509.97178,163.82133 C 509.52679,162.92131 509.52679,161.55632 509.52679,161.55632 C 510.87176,161.55632 511.78675,161.10633 513.13676,161.10633 L 515.40177,166.53633 z M 618.06147,169.25629 C 614.89152,169.25629 616.7115,162.92131 609.91151,162.92131 C 608.11151,162.92131 607.21153,165.16634 605.40152,165.6313 C 605.40152,165.16634 605.86152,162.47132 605.86152,162.47132 C 605.86152,161.10633 606.30154,159.74635 608.11151,158.39634 C 611.72152,158.39634 610.8215,159.74635 613.5365,160.65134 C 615.34651,161.10633 616.26151,162.47132 618.06147,162.47132 L 618.06147,169.25629 z M 570.57164,164.27633 C 570.57164,166.99633 569.22162,169.69631 568.75662,172.41631 C 568.75662,169.25629 567.86661,166.99633 566.05163,165.16634 C 566.05163,164.27633 567.40661,163.82133 566.50663,162.92131 C 566.50663,162.92131 563.79163,161.55632 563.79163,159.74635 C 563.79163,157.48635 565.60164,156.12136 566.50663,154.76134 C 566.50663,154.32136 568.30663,155.68635 568.30663,158.39634 C 568.30663,159.29632 568.30663,160.21132 567.86661,161.55632 C 567.40661,162.92131 570.57164,162.92131 570.57164,164.27633 M 592.73656,155.22635 C 592.73656,157.03636 591.82657,158.39634 592.29158,160.21132 C 590.92655,157.48635 589.55155,154.76134 588.21155,152.06136 C 587.75656,152.06136 587.31658,152.06136 587.31658,151.61137 L 588.64657,150.70634 C 589.55155,150.70634 590.92655,150.70634 590.92655,151.61137 C 591.82657,152.52136 592.73656,153.86637 592.73656,155.22635 M 620.32147,158.84133 C 618.94647,158.39634 615.81148,157.93133 615.81148,156.58633 C 615.81148,154.76134 614.89152,154.32136 612.64649,154.32136 C 610.37151,154.32136 609.01153,154.76134 606.30154,155.68635 C 606.30154,155.68635 604.93651,153.86637 604.48652,152.06136 C 605.40152,151.61137 609.01153,150.24138 610.8215,150.24138 C 614.00651,150.24138 617.60151,150.24138 617.60151,152.06136 C 617.60151,153.41634 620.32147,154.32136 620.32147,158.84133 M 501.82678,149.35137 C 501.3868,152.06136 500.02682,152.96134 497.76181,156.12136 C 495.96181,157.03636 493.24181,157.48635 490.52681,158.84133 C 490.97684,157.48635 492.33682,157.03636 493.24181,155.68635 C 494.59182,154.32136 495.96181,152.06136 496.39683,150.24138 C 498.67681,149.35137 500.02682,149.35137 501.82678,149.35137 M 585.96156,155.68635 C 585.96156,158.39634 585.49659,162.02133 585.49659,165.16634 C 584.14658,165.16634 584.14658,163.82133 584.14658,162.47132 C 583.24656,159.74635 582.79157,157.03636 581.89659,154.32136 C 580.5266,150.24138 578.2666,147.09137 576.46159,143.00638 C 576.0066,140.75138 573.73162,139.84139 571.93662,138.48637 C 574.19162,138.48637 576.46159,138.9364 578.2666,140.30139 C 578.2666,141.65637 578.71158,142.1114 580.0666,143.47138 C 583.24656,143.47138 582.79157,147.53139 585.49659,149.80136 C 585.49659,150.24138 584.60658,150.24138 584.14658,151.16634 C 583.24656,151.16634 582.79157,152.96134 582.79157,152.96134 C 584.14658,153.86637 585.49659,154.32136 585.96156,155.68635 M 493.24181,145.27639 C 491.87682,147.99635 490.52681,150.70634 487.81682,152.06136 C 486.00685,152.06136 483.75185,152.96134 481.03185,152.06136 C 482.38687,150.70634 483.75185,150.24138 485.55185,149.35137 L 489.62183,145.27639 L 493.24181,145.27639 z M 520.37177,152.06136 C 519.01675,152.96134 516.30175,153.41634 514.95675,153.41634 C 511.32675,151.61137 511.32675,147.99635 508.16677,146.63637 C 507.70677,146.17637 507.25678,145.27639 507.25678,144.82636 L 514.95675,146.17637 C 514.49674,147.53139 515.40177,147.99635 516.30175,147.99635 C 517.66177,149.35137 519.01675,150.70634 520.37177,152.06136 M 573.73162,152.06136 C 573.2916,152.96134 572.3766,153.41634 571.93662,153.41634 C 571.93662,153.41634 569.66661,151.16634 569.22162,149.35137 C 568.75662,147.09137 570.12161,143.92137 570.12161,143.92137 C 570.57164,143.92137 571.02163,144.82636 571.93662,144.82636 C 572.3766,145.27639 571.93662,146.63637 572.3766,147.99635 C 573.2916,149.35137 574.64661,150.70634 573.73162,152.06136 M 480.58186,143.92137 L 478.32686,150.70634 C 476.05685,152.96134 472.89687,152.06136 470.18687,152.06136 C 474.25689,150.70634 476.96688,146.63637 478.32686,143.92137 C 479.22188,143.47138 479.67187,143.92137 480.58186,143.92137 M 536.65671,149.35137 L 535.30669,149.35137 C 529.87674,150.70634 525.79671,147.53139 521.72674,144.82636 C 524.44174,143.92137 526.70675,143.92137 528.51171,143.47138 L 529.87674,143.47138 L 531.68171,146.17637 C 533.03672,146.63637 535.30669,147.99635 536.65671,149.35137 M 624.38648,148.89637 C 621.24147,148.89637 618.06147,147.53139 617.60151,146.17637 C 616.7115,145.27639 617.16149,143.47138 615.34651,143.47138 C 614.00651,143.47138 613.09151,144.82636 613.09151,144.82636 C 611.72152,145.27639 609.01153,143.47138 609.01153,144.82636 C 609.01153,147.09137 606.7615,147.99635 604.93651,147.99635 C 603.58654,147.99635 603.13651,147.99635 601.77152,147.53139 L 601.77152,143.00638 C 608.11151,143.00638 607.65651,140.75138 610.37151,140.75138 C 612.17652,140.75138 613.5365,142.1114 615.34651,142.1114 C 617.60151,142.1114 616.26151,141.21138 618.5165,141.21138 C 620.79148,141.21138 621.66648,143.00638 623.49146,143.47138 C 623.49146,144.82636 624.38648,146.63637 624.38648,148.89637 M 474.25689,138.03638 C 474.25689,139.84139 472.89687,142.56139 470.62689,144.82636 C 470.18687,145.27639 468.82689,146.17637 468.82689,146.17637 C 468.82689,143.47138 470.18687,140.75138 470.18687,138.48637 C 471.53689,138.03638 472.89687,137.12639 474.25689,138.03638 M 544.80666,143.92137 C 542.53669,143.92137 539.3717,143.92137 537.5717,142.56139 C 534.84169,140.75138 533.94671,139.84139 532.58673,138.48637 C 534.40671,137.12639 536.65671,137.12639 538.01669,136.68141 C 539.3717,138.48637 541.6267,142.1114 544.80666,143.92137 M 567.40661,141.65637 C 567.40661,143.00638 566.50663,143.47138 565.60164,144.37136 C 565.60164,144.37136 563.79163,142.1114 563.79163,140.75138 C 563.79163,139.3914 563.79163,138.03638 564.24162,136.68141 C 565.60164,138.03638 567.40661,139.84139 567.40661,141.65637 M 588.21155,142.56139 C 584.14658,139.84139 581.43659,135.77141 577.82658,131.71141 C 581.43659,131.71141 582.79157,135.31642 585.49659,135.77141 C 586.41159,136.68141 587.31658,137.12639 588.21155,138.48637 L 588.21155,142.56139 z M 504.09179,131.25141 C 504.09179,134.42641 503.63679,138.48637 500.48678,139.84139 L 499.11679,135.31642 C 500.9268,134.42641 502.29179,133.06639 504.09179,131.25141 M 494.14684,138.48637 C 491.43184,135.77141 489.15682,133.06639 489.15682,130.3564 C 490.52681,130.3564 491.87682,130.3564 493.24181,131.71141 C 493.24181,133.97141 494.59182,135.77141 494.14684,138.48637 M 623.49146,138.03638 C 619.41649,136.22641 613.5365,134.42641 610.37151,134.42641 C 608.57151,134.42641 603.13651,136.68141 600.88155,138.9364 L 599.98153,134.42641 C 603.13651,133.97141 603.13651,131.71141 604.93651,131.71141 C 606.30154,131.71141 608.11151,131.25141 609.4815,131.25141 C 610.8215,131.25141 611.72152,129.89643 612.64649,129.89643 C 614.44649,129.89643 613.5365,132.60643 615.34651,132.60643 C 616.7115,132.60643 617.16149,131.71141 618.5165,131.71141 C 620.79148,131.71141 623.03647,135.31642 623.49146,138.03638 M 514.49674,138.48637 C 512.22677,137.12639 508.16677,136.68141 508.61676,133.97141 C 509.97178,131.71141 511.32675,131.25141 512.22677,129.89643 C 512.68677,133.06639 513.13676,135.77141 514.49674,138.48637 M 556.10664,135.77141 L 553.84667,136.68141 C 548.87167,136.68141 546.15167,135.31642 543.89167,133.06639 C 545.70168,133.06639 548.41668,131.25141 548.41668,131.25141 C 550.68168,133.06639 553.84667,135.31642 556.10664,135.77141 M 467.92687,131.25141 C 466.1119,133.06639 463.84689,134.42641 462.49191,137.12639 C 462.49191,135.77141 462.04689,134.42641 461.59189,133.06639 C 462.04689,131.71141 463.4019,130.3564 464.30188,129.89643 C 465.21192,130.3564 466.56189,130.3564 467.92687,131.25141 M 525.79671,136.68141 C 523.99175,137.12639 520.82676,138.03638 519.47174,135.77141 C 516.75174,131.71141 518.56175,127.63143 519.92173,124.48142 C 520.82676,127.1864 521.28176,129.89643 521.72674,132.60643 C 522.18674,134.42641 524.89173,135.31642 525.79671,136.68141 M 561.52662,128.99141 C 559.71665,129.89643 556.10664,130.3564 553.39664,128.53641 L 557.00666,126.28142 C 558.36163,127.63143 560.17665,128.53641 561.52662,128.99141 M 612.64649,127.63143 C 609.91151,127.63143 609.01153,127.1864 606.7615,127.1864 C 604.93651,127.1864 602.23152,128.53641 600.42155,130.3564 C 599.51152,128.99141 599.98153,127.63143 600.42155,126.28142 C 601.77152,124.91643 604.03653,123.11643 606.30154,123.11643 C 609.4815,123.11643 612.64649,125.82642 612.64649,127.63143 M 479.22188,132.60643 C 476.05685,131.71141 472.89687,128.99141 471.53689,126.28142 C 470.62689,124.48142 470.18687,122.20644 470.18687,120.39142 C 471.98688,120.84646 473.34686,122.20644 474.25689,123.11643 L 474.25689,123.55645 C 476.05685,126.28142 478.77185,128.99141 479.22188,132.60643 M 485.10182,124.91643 L 484.20184,131.25141 C 482.38687,128.53641 481.03185,125.82642 480.58186,122.20644 L 485.10182,124.91643 z M 531.68171,130.3564 C 528.96174,131.25141 527.15674,128.99141 525.34672,127.63143 C 523.99175,124.91643 523.99175,122.20644 523.09173,120.39142 C 525.34672,122.20644 528.96174,122.20644 528.51171,126.28142 C 528.51171,127.63143 530.33173,128.99141 531.68171,130.3564 M 542.53669,124.91643 C 539.82169,124.91643 536.65671,126.28142 535.30669,123.55645 C 536.20171,123.11643 537.1067,121.76145 538.47168,120.84646 L 542.53669,124.91643 z M 613.09151,120.39142 C 609.91151,119.49645 607.65651,118.58645 604.93651,118.58645 C 603.58654,118.58645 599.51152,119.49645 599.06654,120.39142 C 597.69654,119.03644 599.98153,114.98145 601.77152,114.07146 C 603.58654,113.16647 604.93651,113.62147 605.86152,114.07146 C 605.86152,116.78645 609.01153,115.43144 610.8215,116.32645 C 611.72152,117.67646 612.64649,119.03644 613.09151,120.39142 M 551.13668,118.13646 C 550.22665,119.49645 548.87167,118.13646 547.96168,118.13646 L 543.89167,118.13646 C 543.43667,116.78645 542.98668,116.32645 542.53669,115.43144 C 544.80666,114.98145 546.15167,114.07146 547.51666,114.98145 C 548.87167,116.32645 549.31666,118.13646 551.13668,118.13646 M 512.22677,110.90647 C 511.78675,113.62147 510.87176,118.13646 508.16677,119.49645 C 508.16677,118.13646 506.80679,116.78645 505.9018,115.43144 C 505.45678,115.43144 505.9018,116.78645 505.45678,116.78645 C 505.45678,118.13646 505.00679,119.49645 505.00679,121.76145 C 503.63679,122.20644 501.82678,123.11643 500.02682,122.20644 L 500.02682,120.84646 C 499.11679,119.49645 499.11679,118.13646 499.11679,116.78645 L 498.67681,116.32645 C 497.76181,116.78645 497.76181,118.13646 497.76181,119.03644 C 497.31182,119.49645 495.96181,120.84646 495.96181,122.20644 C 494.59182,122.20644 493.24181,121.76145 491.87682,120.84646 L 491.87682,116.32645 C 491.87682,115.43144 491.87682,115.43144 491.43184,115.43144 L 489.15682,118.13646 C 487.37184,116.32645 486.91684,112.71147 486.91684,109.99147 C 494.59182,105.92646 503.63679,107.28148 509.52679,109.55646 C 510.42177,109.99147 511.32675,109.99147 512.22677,110.90647 M 547.51666,107.28148 C 544.80666,107.28148 543.43667,105.92646 542.0867,103.21151 C 542.0867,101.86149 541.6267,100.04151 542.0867,97.78652 C 542.53669,99.14149 542.98668,100.50151 543.89167,101.39649 C 545.70168,100.50151 545.70168,102.7515 546.15167,103.21151 C 546.61167,104.57149 547.51666,105.92646 547.51666,107.28148 M 537.5717,85.11155 C 537.5717,85.57655 536.65671,89.18152 536.65671,89.18152 L 533.03672,90.55151 L 535.30669,80.14155 C 536.20171,81.94656 537.5717,83.76154 537.5717,85.11155 M 465.66691,77.42656 L 463.84689,80.14155 C 464.30188,85.11155 462.04689,88.28655 462.04689,92.35151 L 459.78192,85.11155 C 460.23191,82.85655 460.69191,81.04654 462.04689,78.78654 L 465.66691,77.42656 z M 536.65671,105.92646 C 531.22671,102.7515 524.89173,100.50151 518.11176,100.04151 C 518.11176,101.39649 518.11176,102.7515 517.66177,103.21151 C 523.09173,105.92646 528.51171,108.63645 533.03672,112.71147 L 533.03672,116.78645 C 528.51171,112.26144 523.09173,107.28148 516.75174,105.92646 C 516.30175,106.83149 514.95675,108.18646 514.04175,109.55646 C 510.87176,107.28148 507.25678,105.47647 503.19677,104.57149 C 501.82678,104.57149 501.3868,102.7515 501.3868,101.39649 L 500.9268,99.14149 C 503.19677,98.6865 505.00679,96.87648 505.45678,94.62153 C 505.9018,95.07152 506.80679,95.07152 507.70677,95.07152 C 508.61676,94.62153 508.61676,93.7115 508.61676,92.35151 C 508.61676,89.64653 502.74178,89.64653 500.02682,89.64653 C 496.86179,89.64653 494.59182,89.18152 492.33682,91.0015 C 491.43184,91.0015 491.87682,92.35151 491.87682,93.26151 C 491.87682,93.7115 493.24181,94.62153 493.24181,94.62153 C 494.59182,94.62153 495.05182,93.7115 495.96181,93.7115 C 495.49681,96.42649 496.86179,98.2315 499.11679,99.14149 L 498.67681,103.21151 C 497.31182,104.57149 495.05182,103.6615 493.24181,104.57149 C 490.52681,105.92646 487.81682,107.28148 485.10182,108.63645 C 483.75185,107.28148 482.84186,105.92646 481.94184,104.57149 C 477.41687,105.92646 474.70688,108.63645 470.18687,111.35646 C 468.82689,112.26144 466.56189,114.07146 466.56189,114.07146 C 466.1119,113.62147 466.56189,112.26144 466.56189,110.90647 C 470.62689,106.83149 476.05685,105.47647 480.58186,102.7515 L 480.58186,99.14149 C 478.77185,98.6865 476.96688,99.14149 474.70688,99.14149 C 470.62689,100.04151 466.56189,101.86149 463.4019,104.11149 C 463.4019,102.7515 462.49191,101.39649 463.84689,100.50151 C 468.82689,97.78652 474.70688,95.9765 481.03185,96.42649 L 481.03185,94.62153 C 480.58186,93.7115 480.58186,92.35151 479.67187,92.35151 C 476.96688,89.18152 474.25689,85.57655 474.25689,82.40656 L 475.60686,81.49156 C 474.70688,78.78654 474.25689,71.99656 475.60686,68.83658 C 472.89687,67.93159 470.18687,65.2166 469.28689,63.41159 C 468.3769,61.14162 467.46687,59.79161 467.02189,57.07661 C 467.92687,54.36662 469.28689,53.00663 470.62689,50.29164 C 471.53689,50.29164 472.89687,49.84165 473.34686,48.93162 C 475.60686,48.48162 477.41687,46.21666 480.13187,47.57664 C 481.94184,47.57664 483.75185,48.48162 485.10182,48.93162 C 485.10182,49.84165 485.10182,50.29164 486.46685,51.19662 C 489.15682,51.64661 489.15682,54.36662 490.52681,56.61661 C 491.87682,57.07661 493.24181,57.07661 494.59182,57.07661 C 497.31182,57.97663 499.11679,57.97663 500.48678,59.33661 C 504.09179,57.07661 508.16677,56.61661 512.22677,57.07661 C 512.68677,55.26664 513.59676,53.90661 514.04175,51.64661 C 514.95675,52.55164 514.49674,51.19662 515.40177,51.19662 C 517.66177,49.84165 519.92173,47.57664 523.09173,48.48162 C 525.34672,49.84165 528.51171,48.93162 529.87674,51.64661 C 531.68171,53.00663 532.58673,55.72163 533.94671,58.43162 C 532.58673,61.14162 533.94671,65.2166 531.22671,66.56657 L 528.51171,69.29157 C 527.61173,69.29157 527.15674,70.18659 525.79671,70.18659 C 527.15674,73.35658 526.25175,78.34155 524.89173,81.49156 C 525.79671,81.04654 527.15674,81.04654 527.61173,79.69156 C 528.06172,80.14155 527.61173,81.04654 527.61173,81.49156 C 527.15674,82.40656 527.15674,82.85655 527.15674,82.85655 C 527.61173,85.57655 525.79671,87.82655 523.99175,89.64653 C 523.09173,92.35151 520.82676,95.9765 517.66177,96.42649 L 517.66177,97.78652 C 524.44174,97.78652 530.33173,99.14149 536.65671,102.7515 L 536.65671,105.92646 z M 638.39644,76.07158 C 637.03642,74.71656 635.68645,73.35658 633.87644,73.35658 C 632.53143,71.54657 630.73644,69.29157 628.89647,69.29157 C 630.26646,68.83658 632.07143,67.93159 634.33143,67.93159 C 635.68645,70.18659 637.03642,71.99656 637.49642,73.35658 L 638.39644,76.07158 z M 464.75688,70.64659 L 461.59189,71.99656 L 462.04689,69.29157 C 462.94691,67.93159 463.4019,66.56657 464.75688,65.2166 L 464.75688,70.64659 z M 623.94646,66.12659 C 622.13649,66.12659 620.79148,66.56657 618.94647,66.12659 C 618.06147,65.2166 616.7115,66.12659 615.81148,66.56657 C 614.89152,66.56657 614.00651,66.12659 612.64649,65.2166 C 615.34651,65.2166 616.7115,63.41159 618.94647,62.49659 C 620.79148,63.85657 622.57647,64.7666 623.94646,66.12659 M 523.99175,196.84625 C 523.99175,195.04124 522.63173,194.13125 520.82676,194.13125 C 519.47174,194.13125 517.66177,195.94122 517.66177,196.84625 C 517.66177,198.66122 516.30175,209.05621 516.30175,209.05621 L 519.92173,209.05621 C 521.28176,204.5362 523.99175,199.10621 523.99175,196.84625 M 513.59676,196.38124 L 513.13676,196.38124 L 509.52679,192.77123 L 509.06679,192.77123 C 508.16677,193.66624 507.70677,195.04124 506.80679,196.38124 C 506.80679,200.46623 508.16677,204.9962 509.06679,209.05621 L 513.13676,209.05621 C 513.13676,204.5362 513.59676,200.46623 513.59676,196.38124 M 586.41159,190.95625 L 581.89659,191.41125 C 583.24656,192.77123 583.24656,194.58124 583.24656,195.48623 C 583.24656,196.84625 582.79157,198.19622 581.89659,199.10621 C 580.5266,198.19622 580.5266,196.84625 579.61661,195.48623 C 578.71158,195.48623 578.2666,197.73622 578.2666,198.66122 C 578.2666,203.18123 580.0666,206.35623 581.43659,209.05621 L 585.96156,209.05621 C 585.49659,204.9962 584.60658,201.8162 584.60658,197.73622 C 584.60658,195.48623 585.96156,192.77123 586.41159,190.95625 M 688.60628,147.53139 C 688.60628,128.53641 682.28131,108.18646 665.08638,91.0015 C 662.34635,88.28655 658.76637,85.11155 655.13137,82.85655 C 648.3464,78.34155 642.03641,71.99656 638.39644,65.2166 C 636.13644,62.49659 634.33143,61.14162 631.60647,59.79161 C 632.07143,61.14162 632.96144,62.49659 633.41644,63.85657 L 632.96144,63.85657 C 630.26646,63.85657 628.01147,62.49659 626.17647,61.14162 L 628.01147,59.33661 C 627.55647,58.43162 626.17647,58.43162 625.27148,58.43162 C 617.16149,57.07661 610.37151,61.14162 603.13651,62.49659 L 603.13651,63.41159 C 607.65651,65.2166 608.57151,70.64659 611.26649,73.35658 L 614.00651,73.35658 C 615.34651,73.35658 616.7115,74.71656 617.60151,74.26657 C 617.60151,73.35658 616.7115,71.99656 616.7115,71.54657 C 617.60151,70.64659 618.5165,70.64659 619.41649,71.54657 C 621.66648,72.90159 625.27148,70.64659 627.07645,74.26657 C 624.38648,74.26657 621.66648,74.71656 619.41649,75.61654 C 619.41649,76.07158 620.79148,77.42656 620.32147,78.34155 C 618.06147,77.42656 615.34651,78.34155 614.00651,76.07158 L 613.5365,76.97657 C 616.7115,80.14155 620.79148,82.85655 624.85645,84.22154 C 631.17145,85.57655 636.59644,82.40656 642.48143,83.76154 C 649.27141,86.92653 654.68639,91.0015 659.21136,95.52651 C 674.13635,111.35646 679.57632,128.08142 679.57632,143.00638 C 679.57632,161.55632 674.13635,174.67628 666.00137,182.81626 C 661.01136,187.80624 654.68639,192.31623 646.99639,192.31623 C 645.19643,192.31623 641.56643,191.86124 639.31144,190.05627 C 640.66141,184.62127 641.56643,178.74629 641.56643,170.16132 C 641.56643,165.16634 641.56643,152.06136 635.24643,136.68141 C 633.87644,133.51642 628.89647,123.55645 622.57647,116.78645 C 617.60151,111.80645 611.72152,107.28148 605.86152,107.28148 C 603.13651,107.28148 600.42155,107.73647 598.15154,109.55646 C 595.90155,111.80645 594.54157,115.43144 595.00157,118.13646 C 590.92655,120.39142 585.04156,122.20644 580.0666,122.20644 C 574.19162,122.20644 567.86661,119.03644 562.42664,115.43144 L 562.42664,108.63645 C 559.26165,107.28148 558.36163,105.92646 557.91665,103.21151 L 558.36163,102.7515 C 559.71665,103.21151 560.63665,104.11149 561.52662,104.57149 C 561.07663,101.39649 560.63665,97.78652 558.82164,95.07152 C 557.46165,95.07152 556.10664,94.62153 554.73665,93.7115 C 552.94165,92.35151 552.03165,90.55151 552.03165,88.28655 C 553.39664,90.55151 555.65164,89.64653 557.00666,91.0015 C 554.73665,85.57655 555.65164,82.85655 551.57666,74.26657 C 550.22665,70.18659 546.15167,67.93159 543.43667,65.2166 C 542.0867,63.85657 541.6267,62.49659 539.3717,62.49659 C 538.01669,62.0416 538.01669,59.79161 537.5717,58.43162 C 538.47168,58.43162 539.3717,59.33661 540.27669,59.79161 C 538.01669,53.00663 535.75672,46.21666 529.41173,42.14664 L 528.51171,43.05663 C 525.79671,43.49665 523.09173,43.49665 520.82676,43.49665 C 521.72674,42.14664 523.53675,41.69665 525.34672,40.79667 C 523.53675,39.43665 522.18674,38.98166 519.47174,38.98166 C 518.56175,39.43665 516.30175,40.79667 514.49674,40.79667 L 514.04175,40.79667 C 514.04175,39.43665 513.59676,37.61667 516.30175,36.72165 C 513.59676,36.26165 511.32675,36.26165 508.16677,36.72165 C 507.70677,38.98166 505.9018,40.34164 505.9018,42.14664 C 504.54679,43.49665 504.09179,44.85664 502.74178,46.21666 C 502.74178,43.05663 504.09179,40.34164 504.54679,37.61667 C 502.74178,38.07166 500.48678,39.43665 499.11679,39.43665 C 495.49681,37.61667 490.97684,35.36167 489.15682,35.36167 C 491.87682,37.61667 490.52681,40.79667 490.97684,43.49665 L 489.15682,42.14664 C 488.26685,40.34164 486.46685,38.98166 485.55185,36.72165 C 482.84186,36.72165 481.03185,37.61667 478.77185,38.98166 L 478.32686,39.43665 C 480.13187,39.43665 481.94184,40.79667 482.84186,42.14664 C 479.67187,42.14664 477.41687,40.79667 474.25689,40.79667 C 474.25689,40.79667 474.25689,40.34164 473.34686,40.34164 C 471.98688,40.79667 470.62689,42.14664 469.72187,43.05663 C 466.56189,45.76166 464.30188,48.48162 462.49191,52.55164 C 463.4019,52.55164 464.75688,52.55164 465.21192,53.00663 C 463.84689,53.90661 462.49191,55.72163 460.69191,56.61661 L 460.69191,63.41159 C 459.3369,65.2166 457.52692,66.56657 456.61693,68.83658 C 454.35193,76.97657 453.90194,85.57655 453.90194,95.07152 C 452.99695,96.42649 452.09192,96.87648 451.20195,97.33648 L 451.20195,105.47647 C 451.20195,105.47647 454.35193,102.30648 455.71191,101.39649 C 455.71191,103.21151 455.26192,105.92646 455.26192,107.73647 C 453.90194,107.73647 452.09192,109.55646 452.09192,111.35646 C 452.09192,113.16647 452.54191,114.98145 452.54191,116.78645 C 452.54191,117.67646 452.54191,118.13646 452.99695,119.03644 C 453.45194,118.13646 454.35193,116.78645 455.26192,116.32645 C 455.71191,116.32645 456.61693,115.43144 457.97191,115.43144 C 457.07193,116.78645 456.61693,119.03644 455.71191,120.84646 L 454.35193,122.20644 C 454.35193,122.20644 453.90194,123.11643 453.90194,123.55645 C 455.26192,133.06639 458.4219,142.1114 462.04689,151.61137 C 458.87689,157.93133 455.71191,164.72632 454.35193,169.69631 C 452.99695,173.31629 451.20195,180.55626 451.20195,180.55626 C 448.93695,178.30126 445.76195,177.84627 443.04695,177.84627 C 439.88697,178.30126 437.17197,179.20129 434.90696,181.91128 C 432.19697,180.55626 428.57699,181.00629 426.76702,183.26625 C 422.70201,186.90125 422.70201,188.70125 422.70201,191.41125 C 421.34203,192.77123 419.53201,195.04124 419.53201,198.19622 C 419.53201,202.72623 420.442,205.42621 422.70201,209.05621 L 494.59182,209.05621 C 493.6918,207.70119 492.78181,205.89122 491.87682,204.5362 C 490.52681,201.8162 491.43184,198.19622 491.43184,195.48623 C 492.78181,192.77123 494.59182,190.05627 495.96181,187.34628 C 496.39683,185.99126 495.96181,185.99126 496.86179,185.53126 L 500.02682,184.18125 C 501.82678,184.18125 503.19677,183.26625 505.45678,183.26625 C 507.25678,185.53126 507.25678,181.46129 509.52679,180.55626 C 514.95675,180.10127 519.47174,180.55626 522.18674,184.62127 C 522.18674,185.53126 523.09173,185.53126 523.09173,185.99126 L 520.82676,185.99126 C 518.11176,184.62127 514.49674,183.26625 511.32675,184.62127 C 511.32675,185.99126 510.87176,185.99126 510.87176,187.34628 L 510.87176,189.60624 C 512.68677,190.05627 514.04175,191.41125 515.85176,192.77123 C 516.75174,190.95625 519.47174,189.60624 521.72674,189.60624 C 523.99175,189.60624 527.61173,190.95625 527.61173,195.04124 C 527.61173,196.84625 527.15674,198.66122 527.15674,200.46623 C 528.96174,201.8162 531.68171,202.25622 533.94671,203.62121 C 533.03672,204.9962 531.68171,204.9962 530.33173,204.9962 L 526.25175,204.9962 C 525.79671,204.5362 524.89173,204.5362 524.89173,203.62121 C 523.53675,204.9962 522.63173,207.2462 521.72674,209.05621 L 576.91158,209.05621 C 576.0066,207.2462 575.08659,205.89122 574.64661,204.5362 C 573.2916,201.8162 573.73162,198.19622 573.2916,195.48623 L 578.71158,188.26127 C 581.43659,188.26127 584.14658,187.34628 589.11658,186.90125 C 590.01155,185.53126 589.11658,184.62127 593.17654,184.18125 C 596.79156,184.18125 599.06654,185.53126 599.98153,185.99126 C 600.42155,186.90125 600.42155,186.90125 599.98153,187.80624 C 599.06654,188.70125 597.26153,186.90125 595.90155,187.34628 C 595.00157,188.26127 596.35654,188.70125 596.35654,189.60624 C 597.26153,190.50626 592.29158,188.70125 592.29158,188.70125 C 592.29158,188.70125 590.92655,191.41125 590.47656,192.77123 C 590.47656,192.77123 592.73656,194.13125 593.17654,195.48623 C 594.09154,196.84625 592.29158,198.19622 592.29158,199.56124 C 590.92655,199.10621 589.55155,197.73622 589.11658,198.19622 C 588.21155,201.8162 589.11658,204.9962 588.64657,209.05621 L 593.63654,209.05621 L 594.54157,200.91121 C 595.00157,196.38124 600.42155,187.80624 603.58654,187.80624 C 605.86152,187.80624 606.7615,188.70125 608.57151,190.05627 C 609.91151,191.41125 611.72152,192.77123 611.72152,193.66624 C 611.72152,194.13125 610.37151,195.04124 608.11151,195.04124 C 607.21153,195.04124 606.7615,193.66624 605.86152,192.77123 L 603.13651,195.48623 C 603.13651,195.48623 606.30154,198.19622 606.30154,200.46623 C 606.30154,202.25622 605.86152,203.62121 604.03653,204.5362 L 601.33655,199.10621 C 599.98153,199.10621 597.69654,201.8162 597.69654,203.62121 C 597.69654,205.42621 596.79156,206.35623 596.79156,209.05621 L 626.17647,209.05621 C 629.36644,209.05621 632.07143,208.14121 635.24643,206.35623 L 641.11644,206.35623 C 649.27141,206.35623 659.67136,204.9962 670.50636,194.58124 C 687.69629,178.30126 688.60628,156.12136 688.60628,147.53139 M 505.45678,209.05621 C 503.19677,204.5362 502.74178,198.19622 502.74178,196.84625 C 502.74178,194.13125 502.74178,190.95625 504.09179,188.70125 L 498.67681,190.05627 C 497.76181,191.41125 497.31182,192.77123 497.31182,193.66624 L 499.11679,192.77123 C 500.02682,192.77123 500.48678,193.66624 500.9268,194.13125 C 500.48678,196.84625 497.76181,196.84625 496.39683,197.73622 C 495.05182,202.25622 499.11679,204.9962 500.02682,209.05621 L 505.45678,209.05621 z"
       id="path430"
       style="font-size:22px;letter-spacing:0;word-spacing:0;fill:#eb6606;fill-rule:nonzero;stroke:none;font-family:fnt0" />
  </g>
</svg>
